<svg id="visual" viewBox="0 0 1920 1080" width="1920" height="1080" xmlns="http://www.w3.org/2000/svg" xmlns:xlink="http://www.w3.org/1999/xlink" version="1.1"><rect x="0" y="0" width="1920" height="1080" fill="#001220"></rect><defs><linearGradient id="grad1_0" x1="43.8%" y1="0%" x2="100%" y2="100%"><stop offset="14.444444444444446%" stop-color="#3ce5fa" stop-opacity="1"></stop><stop offset="85.55555555555554%" stop-color="#3ce5fa" stop-opacity="1"></stop></linearGradient></defs><defs><linearGradient id="grad1_1" x1="43.8%" y1="0%" x2="100%" y2="100%"><stop offset="14.444444444444446%" stop-color="#3ce5fa" stop-opacity="1"></stop><stop offset="85.55555555555554%" stop-color="#29a9c6" stop-opacity="1"></stop></linearGradient></defs><defs><linearGradient id="grad1_2" x1="43.8%" y1="0%" x2="100%" y2="100%"><stop offset="14.444444444444446%" stop-color="#1f718e" stop-opacity="1"></stop><stop offset="85.55555555555554%" stop-color="#29a9c6" stop-opacity="1"></stop></linearGradient></defs><defs><linearGradient id="grad1_3" x1="43.8%" y1="0%" x2="100%" y2="100%"><stop offset="14.444444444444446%" stop-color="#1f718e" stop-opacity="1"></stop><stop offset="85.55555555555554%" stop-color="#133f55" stop-opacity="1"></stop></linearGradient></defs><defs><linearGradient id="grad1_4" x1="43.8%" y1="0%" x2="100%" y2="100%"><stop offset="14.444444444444446%" stop-color="#001220" stop-opacity="1"></stop><stop offset="85.55555555555554%" stop-color="#133f55" stop-opacity="1"></stop></linearGradient></defs><defs><linearGradient id="grad2_0" x1="0%" y1="0%" x2="56.3%" y2="100%"><stop offset="14.444444444444446%" stop-color="#3ce5fa" stop-opacity="1"></stop><stop offset="85.55555555555554%" stop-color="#3ce5fa" stop-opacity="1"></stop></linearGradient></defs><defs><linearGradient id="grad2_1" x1="0%" y1="0%" x2="56.3%" y2="100%"><stop offset="14.444444444444446%" stop-color="#29a9c6" stop-opacity="1"></stop><stop offset="85.55555555555554%" stop-color="#3ce5fa" stop-opacity="1"></stop></linearGradient></defs><defs><linearGradient id="grad2_2" x1="0%" y1="0%" x2="56.3%" y2="100%"><stop offset="14.444444444444446%" stop-color="#29a9c6" stop-opacity="1"></stop><stop offset="85.55555555555554%" stop-color="#1f718e" stop-opacity="1"></stop></linearGradient></defs><defs><linearGradient id="grad2_3" x1="0%" y1="0%" x2="56.3%" y2="100%"><stop offset="14.444444444444446%" stop-color="#133f55" stop-opacity="1"></stop><stop offset="85.55555555555554%" stop-color="#1f718e" stop-opacity="1"></stop></linearGradient></defs><defs><linearGradient id="grad2_4" x1="0%" y1="0%" x2="56.3%" y2="100%"><stop offset="14.444444444444446%" stop-color="#133f55" stop-opacity="1"></stop><stop offset="85.55555555555554%" stop-color="#001220" stop-opacity="1"></stop></linearGradient></defs><g transform="translate(1920, 0)"><path d="M0 594C-18.1 529.8 -36.1 465.6 -53.8 442.7C-71.4 419.9 -88.6 438.3 -112.7 457.3C-136.8 476.3 -167.8 495.9 -179.8 474.1C-191.7 452.2 -184.6 389 -186.4 355.1C-188.1 321.1 -198.7 316.5 -223.8 324.3C-248.9 332 -288.5 352.1 -314.3 354.8C-340.1 357.4 -352.2 342.6 -385.5 341.5C-418.8 340.4 -473.3 353 -488.9 337.4C-504.4 321.9 -480.9 278.2 -469.3 246.3C-457.7 214.4 -457.9 194.3 -452.5 171.6C-447.2 148.9 -436.4 123.7 -415.6 102.4C-394.8 81.2 -364 64 -392.1 47.6C-420.2 31.2 -507.1 15.6 -594 0L0 0Z" fill="#0a283a"></path><path d="M0 475.2C-14.4 423.8 -28.9 372.5 -43 354.2C-57.1 335.9 -70.9 350.6 -90.2 365.9C-109.5 381.1 -134.3 396.7 -143.8 379.2C-153.4 361.8 -147.7 311.2 -149.1 284.1C-150.5 256.9 -159 253.2 -179.1 259.4C-199.1 265.6 -230.8 281.7 -251.5 283.8C-272.1 286 -281.8 274.1 -308.4 273.2C-335 272.3 -378.7 282.4 -391.1 269.9C-403.5 257.5 -384.7 222.6 -375.4 197C-366.1 171.5 -366.3 155.5 -362 137.3C-357.8 119.2 -349.1 98.9 -332.5 81.9C-315.8 65 -291.2 51.2 -313.7 38.1C-336.2 25 -405.7 12.5 -475.2 0L0 0Z" fill="#195771"></path><path d="M0 356.4C-10.8 317.9 -21.7 279.4 -32.3 265.6C-42.8 251.9 -53.2 263 -67.6 274.4C-82.1 285.8 -100.7 297.5 -107.9 284.4C-115 271.3 -110.8 233.4 -111.8 213C-112.9 192.7 -119.2 189.9 -134.3 194.6C-149.4 199.2 -173.1 211.3 -188.6 212.9C-204.1 214.5 -211.3 205.6 -231.3 204.9C-251.3 204.2 -284 211.8 -293.3 202.5C-302.6 193.1 -288.6 166.9 -281.6 147.8C-274.6 128.6 -274.7 116.6 -271.5 103C-268.3 89.4 -261.8 74.2 -249.3 61.5C-236.9 48.7 -218.4 38.4 -235.3 28.6C-252.1 18.7 -304.3 9.4 -356.4 0L0 0Z" fill="#248daa"></path><path d="M0 237.6C-7.2 211.9 -14.4 186.2 -21.5 177.1C-28.6 167.9 -35.4 175.3 -45.1 182.9C-54.7 190.5 -67.1 198.4 -71.9 189.6C-76.7 180.9 -73.8 155.6 -74.5 142C-75.2 128.5 -79.5 126.6 -89.5 129.7C-99.6 132.8 -115.4 140.9 -125.7 141.9C-136.1 143 -140.9 137.1 -154.2 136.6C-167.5 136.2 -189.3 141.2 -195.5 135C-201.8 128.8 -192.4 111.3 -187.7 98.5C-183.1 85.8 -183.1 77.7 -181 68.7C-178.9 59.6 -174.5 49.5 -166.2 41C-157.9 32.5 -145.6 25.6 -156.8 19C-168.1 12.5 -202.8 6.2 -237.6 0L0 0Z" fill="#31c7e0"></path><path d="M0 118.8C-3.6 106 -7.2 93.1 -10.8 88.5C-14.3 84 -17.7 87.7 -22.5 91.5C-27.4 95.3 -33.6 99.2 -36 94.8C-38.3 90.4 -36.9 77.8 -37.3 71C-37.6 64.2 -39.7 63.3 -44.8 64.9C-49.8 66.4 -57.7 70.4 -62.9 71C-68 71.5 -70.4 68.5 -77.1 68.3C-83.8 68.1 -94.7 70.6 -97.8 67.5C-100.9 64.4 -96.2 55.6 -93.9 49.3C-91.5 42.9 -91.6 38.9 -90.5 34.3C-89.4 29.8 -87.3 24.7 -83.1 20.5C-79 16.2 -72.8 12.8 -78.4 9.5C-84 6.2 -101.4 3.1 -118.8 0L0 0Z" fill="#3ce5fa"></path></g><g transform="translate(0, 1080)"><path d="M0 -594C14.9 -505.3 29.7 -416.7 48.1 -396.1C66.4 -375.5 88.3 -423 108.2 -438.9C128.1 -454.7 146 -439 161.7 -426.4C177.4 -413.8 190.7 -404.3 213.3 -406.4C235.9 -408.6 267.9 -422.3 285.7 -414C303.6 -405.6 307.5 -375.2 305 -344.3C302.6 -313.4 293.9 -282.1 303.1 -268.6C312.4 -255 339.6 -259.2 389.3 -268.7C438.9 -278.1 511 -292.8 526 -276C540.9 -259.3 498.7 -211.1 459.1 -174.1C419.4 -137.1 382.3 -111.4 385.5 -95C388.6 -78.7 432.1 -71.8 473.5 -57.5C515 -43.2 554.5 -21.6 594 0L0 0Z" fill="#0a283a"></path><path d="M0 -475.2C11.9 -404.3 23.8 -333.3 38.5 -316.9C53.2 -300.4 70.6 -338.4 86.5 -351.1C102.5 -363.8 116.8 -351.2 129.4 -341.1C141.9 -331 152.5 -323.4 170.6 -325.1C188.7 -326.8 214.3 -337.8 228.6 -331.2C242.9 -324.5 246 -300.2 244 -275.5C242.1 -250.8 235.1 -225.7 242.5 -214.9C249.9 -204 271.7 -207.4 311.4 -215C351.1 -222.5 408.8 -234.2 420.8 -220.8C432.7 -207.4 399 -168.9 367.3 -139.3C335.6 -109.7 305.8 -89.1 308.4 -76C310.9 -62.9 345.6 -57.4 378.8 -46C412 -34.6 443.6 -17.3 475.2 0L0 0Z" fill="#195771"></path><path d="M0 -356.4C8.9 -303.2 17.8 -250 28.9 -237.7C39.9 -225.3 53 -253.8 64.9 -263.3C76.8 -272.8 87.6 -263.4 97 -255.8C106.4 -248.3 114.4 -242.6 128 -243.9C141.6 -245.1 160.7 -253.4 171.4 -248.4C182.2 -243.4 184.5 -225.1 183 -206.6C181.6 -188.1 176.3 -169.3 181.9 -161.1C187.4 -153 203.8 -155.5 233.6 -161.2C263.4 -166.9 306.6 -175.7 315.6 -165.6C324.5 -155.6 299.2 -126.7 275.5 -104.5C251.7 -82.3 229.4 -66.8 231.3 -57C233.2 -47.2 259.2 -43.1 284.1 -34.5C309 -25.9 332.7 -13 356.4 0L0 0Z" fill="#248daa"></path><path d="M0 -237.6C5.9 -202.1 11.9 -166.7 19.2 -158.4C26.6 -150.2 35.3 -169.2 43.3 -175.5C51.2 -181.9 58.4 -175.6 64.7 -170.5C70.9 -165.5 76.3 -161.7 85.3 -162.6C94.4 -163.4 107.1 -168.9 114.3 -165.6C121.4 -162.2 123 -150.1 122 -137.7C121 -125.4 117.6 -112.8 121.3 -107.4C125 -102 135.8 -103.7 155.7 -107.5C175.6 -111.3 204.4 -117.1 210.4 -110.4C216.4 -103.7 199.5 -84.4 183.6 -69.6C167.8 -54.9 152.9 -44.5 154.2 -38C155.4 -31.5 172.8 -28.7 189.4 -23C206 -17.3 221.8 -8.6 237.6 0L0 0Z" fill="#31c7e0"></path><path d="M0 -118.8C3 -101.1 5.9 -83.3 9.6 -79.2C13.3 -75.1 17.7 -84.6 21.6 -87.8C25.6 -90.9 29.2 -87.8 32.3 -85.3C35.5 -82.8 38.1 -80.9 42.7 -81.3C47.2 -81.7 53.6 -84.5 57.1 -82.8C60.7 -81.1 61.5 -75 61 -68.9C60.5 -62.7 58.8 -56.4 60.6 -53.7C62.5 -51 67.9 -51.8 77.9 -53.7C87.8 -55.6 102.2 -58.6 105.2 -55.2C108.2 -51.9 99.7 -42.2 91.8 -34.8C83.9 -27.4 76.5 -22.3 77.1 -19C77.7 -15.7 86.4 -14.4 94.7 -11.5C103 -8.6 110.9 -4.3 118.8 0L0 0Z" fill="#3ce5fa"></path></g></svg>